<svg width="2998" height="999" xmlns="http://www.w3.org/2000/svg" xmlns:xlink="http://www.w3.org/1999/xlink" xml:space="preserve" overflow="hidden"><g transform="translate(-783 -779)"><g><rect x="895" y="780" width="2852" height="986" fill="#FFFFFF" fill-opacity="1"/><text fill="#000000" fill-opacity="1" font-family="Cambria Math,Cambria Math_MSFontService,sans-serif" font-style="normal" font-variant="normal" font-weight="400" font-stretch="normal" font-size="110" text-anchor="start" direction="ltr" writing-mode="lr-tb" unicode-bidi="normal" text-decoration="none" transform="matrix(1 0 0 1 964.709 1131)">𝑎</text><text fill="#000000" fill-opacity="1" font-family="Cambria Math,Cambria Math_MSFontService,sans-serif" font-style="normal" font-variant="normal" font-weight="400" font-stretch="normal" font-size="110" text-anchor="start" direction="ltr" writing-mode="lr-tb" unicode-bidi="normal" text-decoration="none" transform="matrix(1 0 0 1 1235.47 1136)">𝑏</text><text fill="#000000" fill-opacity="1" font-family="Cambria Math,Cambria Math_MSFontService,sans-serif" font-style="normal" font-variant="normal" font-weight="400" font-stretch="normal" font-size="110" text-anchor="start" direction="ltr" writing-mode="lr-tb" unicode-bidi="normal" text-decoration="none" transform="matrix(1 0 0 1 1511.77 1136)">𝑐</text><path d="M1517 1184.5C1517 1172.63 1526.85 1163 1539 1163 1551.15 1163 1561 1172.63 1561 1184.5 1561 1196.37 1551.15 1206 1539 1206 1526.85 1206 1517 1196.37 1517 1184.5Z" fill="#000000" fill-rule="evenodd" fill-opacity="1"/><path d="M1246 1184.5C1246 1172.63 1255.85 1163 1268 1163 1280.15 1163 1290 1172.63 1290 1184.5 1290 1196.37 1280.15 1206 1268 1206 1255.85 1206 1246 1196.37 1246 1184.5Z" fill="#000000" fill-rule="evenodd" fill-opacity="1"/><path d="M975 1181C975 1168.85 984.85 1159 997 1159 1009.15 1159 1019 1168.85 1019 1181 1019 1193.15 1009.15 1203 997 1203 984.85 1203 975 1193.15 975 1181Z" fill="#000000" fill-rule="evenodd" fill-opacity="1"/><path d="M1840 1181.12 2630.62 1181.13 2630.62 1194.88 1840 1194.88ZM2623.75 1167.38 2665 1188 2623.75 1208.63Z" fill="#000000" fill-rule="nonzero" fill-opacity="1"/><text fill="#000000" fill-opacity="1" font-family="Cambria Math,Cambria Math_MSFontService,sans-serif" font-style="normal" font-variant="normal" font-weight="400" font-stretch="normal" font-size="110" text-anchor="start" direction="ltr" writing-mode="lr-tb" unicode-bidi="normal" text-decoration="none" transform="matrix(1 0 0 1 1862.57 1155)">0</text><text fill="#000000" fill-opacity="1" font-family="Cambria Math,Cambria Math_MSFontService,sans-serif" font-style="normal" font-variant="normal" font-weight="400" font-stretch="normal" font-size="110" text-anchor="start" direction="ltr" writing-mode="lr-tb" unicode-bidi="normal" text-decoration="none" transform="matrix(1 0 0 1 2169.98 1155)">1</text><text fill="#000000" fill-opacity="1" font-family="Cambria Math,Cambria Math_MSFontService,sans-serif" font-style="normal" font-variant="normal" font-weight="400" font-stretch="normal" font-size="110" text-anchor="start" direction="ltr" writing-mode="lr-tb" unicode-bidi="normal" text-decoration="none" transform="matrix(1 0 0 1 2481.54 1155)">2</text><path d="M2492 1187C2492 1177.06 2500.06 1169 2510 1169 2519.94 1169 2528 1177.06 2528 1187 2528 1196.94 2519.94 1205 2510 1205 2500.06 1205 2492 1196.94 2492 1187Z" fill="#000000" fill-rule="evenodd" fill-opacity="1"/><path d="M2184 1188C2184 1178.06 2192.28 1170 2202.5 1170 2212.72 1170 2221 1178.06 2221 1188 2221 1197.94 2212.72 1206 2202.5 1206 2192.28 1206 2184 1197.94 2184 1188Z" fill="#000000" fill-rule="evenodd" fill-opacity="1"/><path d="M1877 1187.5C1877 1177.28 1885.06 1169 1895 1169 1904.94 1169 1913 1177.28 1913 1187.5 1913 1197.72 1904.94 1206 1895 1206 1885.06 1206 1877 1197.72 1877 1187.5Z" fill="#000000" fill-rule="evenodd" fill-opacity="1"/><path d="M2844.03 1464.12 3634.65 1467.21 3634.6 1480.96 2843.97 1477.87ZM3627.83 1453.43 3669 1474.22 3627.67 1494.68Z" fill="#000000" fill-rule="nonzero" fill-opacity="1"/><path d="M6.875-3.50135e-06 6.87534 674.248-6.87466 674.248-6.875 3.50135e-06ZM20.6253 667.373 0.000360892 708.623-20.6247 667.373Z" fill="#000000" fill-rule="nonzero" fill-opacity="1" transform="matrix(1 0 0 -1 2911 1533.62)"/><path d="M3639.38 1126.3C3648.13 1128.61 3654.84 1133.59 3659.53 1141.24 3664.22 1148.89 3666.56 1158.12 3666.56 1168.93 3666.56 1179.78 3664.23 1189.01 3659.55 1196.63 3654.88 1204.25 3648.16 1209.21 3639.38 1211.52L3638.31 1208.06C3645.22 1205.76 3650.37 1201.2 3653.74 1194.4 3657.11 1187.61 3658.79 1178.97 3658.79 1168.48 3658.79 1158.36 3657.11 1149.95 3653.76 1143.26 3650.4 1136.57 3645.21 1132.07 3638.17 1129.76ZM3497.51 1126.3 3498.73 1129.76C3491.72 1132.07 3486.53 1136.57 3483.16 1143.26 3479.79 1149.95 3478.11 1158.36 3478.11 1168.48 3478.11 1178.97 3479.79 1187.61 3483.16 1194.4 3486.53 1201.2 3491.68 1205.76 3498.59 1208.06L3497.51 1211.52C3488.74 1209.21 3482.02 1204.25 3477.34 1196.63 3472.67 1189.01 3470.34 1179.78 3470.34 1168.93 3470.34 1158.12 3472.68 1148.89 3477.37 1141.24 3482.05 1133.59 3488.77 1128.61 3497.51 1126.3Z" fill="#000000" fill-rule="evenodd" fill-opacity="1"/><text fill="#000000" fill-opacity="1" font-family="Cambria Math,Cambria Math_MSFontService,sans-serif" font-style="normal" font-variant="normal" font-weight="400" font-stretch="normal" font-size="92" text-anchor="start" direction="ltr" writing-mode="lr-tb" unicode-bidi="normal" text-decoration="none" transform="matrix(1 0 0 1 3500.29 1195)">3</text><text fill="#000000" fill-opacity="1" font-family="Cambria Math,Cambria Math_MSFontService,sans-serif" font-style="normal" font-variant="normal" font-weight="400" font-stretch="normal" font-size="92" text-anchor="start" direction="ltr" writing-mode="lr-tb" unicode-bidi="normal" text-decoration="none" transform="matrix(1 0 0 1 3551.28 1195)">,</text><text fill="#000000" fill-opacity="1" font-family="Cambria Math,Cambria Math_MSFontService,sans-serif" font-style="normal" font-variant="normal" font-weight="400" font-stretch="normal" font-size="92" text-anchor="start" direction="ltr" writing-mode="lr-tb" unicode-bidi="normal" text-decoration="none" transform="matrix(1 0 0 1 3585.47 1195)">1</text><path d="M3225.26 1054.11C3234 1056.41 3240.72 1061.39 3245.41 1069.04 3250.09 1076.69 3252.44 1085.92 3252.44 1096.74 3252.44 1107.58 3250.1 1116.81 3245.43 1124.43 3240.76 1132.05 3234.03 1137.02 3225.26 1139.32L3224.18 1135.86C3231.1 1133.56 3236.24 1129 3239.61 1122.21 3242.98 1115.41 3244.67 1106.77 3244.67 1096.29 3244.67 1086.16 3242.99 1077.76 3239.63 1071.06 3236.28 1064.37 3231.08 1059.87 3224.05 1057.56ZM3013.5 1054.11 3014.71 1057.56C3007.7 1059.87 3002.51 1064.37 2999.14 1071.06 2995.77 1077.76 2994.09 1086.16 2994.09 1096.29 2994.09 1106.77 2995.77 1115.41 2999.14 1122.21 3002.51 1129 3007.66 1133.56 3014.57 1135.86L3013.5 1139.32C3004.72 1137.02 2998 1132.05 2993.33 1124.43 2988.65 1116.81 2986.32 1107.58 2986.32 1096.74 2986.32 1085.92 2988.66 1076.69 2993.35 1069.04 2998.03 1061.39 3004.75 1056.41 3013.5 1054.11Z" fill="#000000" fill-rule="evenodd" fill-opacity="1"/><text fill="#000000" fill-opacity="1" font-family="Cambria Math,Cambria Math_MSFontService,sans-serif" font-style="normal" font-variant="normal" font-weight="400" font-stretch="normal" font-size="92" text-anchor="start" direction="ltr" writing-mode="lr-tb" unicode-bidi="normal" text-decoration="none" transform="matrix(1 0 0 1 3016.27 1123)">1</text><text fill="#000000" fill-opacity="1" font-family="Cambria Math,Cambria Math_MSFontService,sans-serif" font-style="normal" font-variant="normal" font-weight="400" font-stretch="normal" font-size="92" text-anchor="start" direction="ltr" writing-mode="lr-tb" unicode-bidi="normal" text-decoration="none" transform="matrix(1 0 0 1 3067.26 1123)">,</text><text fill="#000000" fill-opacity="1" font-family="Cambria Math,Cambria Math_MSFontService,sans-serif" font-style="normal" font-variant="normal" font-weight="400" font-stretch="normal" font-size="92" text-anchor="start" direction="ltr" writing-mode="lr-tb" unicode-bidi="normal" text-decoration="none" transform="matrix(1 0 0 1 3101.45 1123)">1</text><text fill="#000000" fill-opacity="1" font-family="Cambria Math,Cambria Math_MSFontService,sans-serif" font-style="normal" font-variant="normal" font-weight="400" font-stretch="normal" font-size="92" text-anchor="start" direction="ltr" writing-mode="lr-tb" unicode-bidi="normal" text-decoration="none" transform="matrix(1 0 0 1 3152.44 1123)">.</text><text fill="#000000" fill-opacity="1" font-family="Cambria Math,Cambria Math_MSFontService,sans-serif" font-style="normal" font-variant="normal" font-weight="400" font-stretch="normal" font-size="92" text-anchor="start" direction="ltr" writing-mode="lr-tb" unicode-bidi="normal" text-decoration="none" transform="matrix(1 0 0 1 3171.35 1123)">3</text><path d="M3098.58 1364.26C3107.32 1366.56 3114.04 1371.54 3118.72 1379.19 3123.41 1386.84 3125.76 1396.08 3125.76 1406.89 3125.76 1417.73 3123.42 1426.96 3118.75 1434.58 3114.08 1442.2 3107.35 1447.17 3098.58 1449.47L3097.5 1446.01C3104.42 1443.71 3109.56 1439.16 3112.93 1432.36 3116.3 1425.56 3117.98 1416.92 3117.98 1406.44 3117.98 1396.31 3116.31 1387.91 3112.95 1381.21 3109.6 1374.52 3104.4 1370.02 3097.36 1367.71ZM2956.71 1364.26 2957.92 1367.71C2950.91 1370.02 2945.73 1374.52 2942.36 1381.21 2938.99 1387.91 2937.3 1396.31 2937.3 1406.44 2937.3 1416.92 2938.99 1425.56 2942.36 1432.36 2945.73 1439.16 2950.87 1443.71 2957.79 1446.01L2956.71 1449.47C2947.93 1447.17 2941.21 1442.2 2936.54 1434.58 2931.87 1426.96 2929.53 1417.73 2929.53 1406.89 2929.53 1396.08 2931.87 1386.84 2936.56 1379.19 2941.25 1371.54 2947.96 1366.56 2956.71 1364.26Z" fill="#000000" fill-rule="evenodd" fill-opacity="1"/><text fill="#000000" fill-opacity="1" font-family="Cambria Math,Cambria Math_MSFontService,sans-serif" font-style="normal" font-variant="normal" font-weight="400" font-stretch="normal" font-size="92" text-anchor="start" direction="ltr" writing-mode="lr-tb" unicode-bidi="normal" text-decoration="none" transform="matrix(1 0 0 1 2959.49 1433)">0</text><text fill="#000000" fill-opacity="1" font-family="Cambria Math,Cambria Math_MSFontService,sans-serif" font-style="normal" font-variant="normal" font-weight="400" font-stretch="normal" font-size="92" text-anchor="start" direction="ltr" writing-mode="lr-tb" unicode-bidi="normal" text-decoration="none" transform="matrix(1 0 0 1 3010.48 1433)">,</text><text fill="#000000" fill-opacity="1" font-family="Cambria Math,Cambria Math_MSFontService,sans-serif" font-style="normal" font-variant="normal" font-weight="400" font-stretch="normal" font-size="92" text-anchor="start" direction="ltr" writing-mode="lr-tb" unicode-bidi="normal" text-decoration="none" transform="matrix(1 0 0 1 3044.67 1433)">0</text><path d="M3412.7 922.94C3421.45 925.246 3428.16 930.225 3432.85 937.876 3437.54 945.528 3439.88 954.76 3439.88 965.571 3439.88 976.412 3437.54 985.643 3432.87 993.265 3428.2 1000.89 3421.48 1005.85 3412.7 1008.16L3411.62 1004.7C3418.54 1002.39 3423.69 997.84 3427.06 991.041 3430.42 984.243 3432.11 975.603 3432.11 965.121 3432.11 954.999 3430.43 946.591 3427.08 939.898 3423.72 933.204 3418.53 928.705 3411.49 926.399ZM3270.83 922.94 3272.05 926.399C3265.04 928.705 3259.85 933.204 3256.48 939.898 3253.11 946.591 3251.43 954.999 3251.43 965.121 3251.43 975.603 3253.11 984.243 3256.48 991.041 3259.85 997.84 3264.99 1002.39 3271.91 1004.7L3270.83 1008.16C3262.06 1005.85 3255.34 1000.89 3250.66 993.265 3245.99 985.643 3243.66 976.412 3243.66 965.571 3243.66 954.76 3246 945.528 3250.69 937.876 3255.37 930.225 3262.09 925.246 3270.83 922.94Z" fill="#000000" fill-rule="evenodd" fill-opacity="1"/><text fill="#000000" fill-opacity="1" font-family="Cambria Math,Cambria Math_MSFontService,sans-serif" font-style="normal" font-variant="normal" font-weight="400" font-stretch="normal" font-size="92" text-anchor="start" direction="ltr" writing-mode="lr-tb" unicode-bidi="normal" text-decoration="none" transform="matrix(1 0 0 1 3273.61 992)">2</text><text fill="#000000" fill-opacity="1" font-family="Cambria Math,Cambria Math_MSFontService,sans-serif" font-style="normal" font-variant="normal" font-weight="400" font-stretch="normal" font-size="92" text-anchor="start" direction="ltr" writing-mode="lr-tb" unicode-bidi="normal" text-decoration="none" transform="matrix(1 0 0 1 3324.6 992)">,</text><text fill="#000000" fill-opacity="1" font-family="Cambria Math,Cambria Math_MSFontService,sans-serif" font-style="normal" font-variant="normal" font-weight="400" font-stretch="normal" font-size="92" text-anchor="start" direction="ltr" writing-mode="lr-tb" unicode-bidi="normal" text-decoration="none" transform="matrix(1 0 0 1 3358.79 992)">2</text><path d="M2889 1466.5C2889 1454.63 2898.63 1445 2910.5 1445 2922.37 1445 2932 1454.63 2932 1466.5 2932 1478.37 2922.37 1488 2910.5 1488 2898.63 1488 2889 1478.37 2889 1466.5Z" fill="#000000" fill-rule="evenodd" fill-opacity="1"/><path d="M3328 1032.5C3328 1020.63 3337.63 1011 3349.5 1011 3361.37 1011 3371 1020.63 3371 1032.5 3371 1044.37 3361.37 1054 3349.5 1054 3337.63 1054 3328 1044.37 3328 1032.5Z" fill="#000000" fill-rule="evenodd" fill-opacity="1"/><path d="M3547 1237.5C3547 1225.63 3556.63 1216 3568.5 1216 3580.37 1216 3590 1225.63 3590 1237.5 3590 1249.37 3580.37 1259 3568.5 1259 3556.63 1259 3547 1249.37 3547 1237.5Z" fill="#000000" fill-rule="evenodd" fill-opacity="1"/><path d="M3109 1164.5C3109 1152.63 3118.63 1143 3130.5 1143 3142.37 1143 3152 1152.63 3152 1164.5 3152 1176.37 3142.37 1186 3130.5 1186 3118.63 1186 3109 1176.37 3109 1164.5Z" fill="#000000" fill-rule="evenodd" fill-opacity="1"/><path d="M3328 1352.5C3328 1340.63 3337.63 1331 3349.5 1331 3361.37 1331 3371 1340.63 3371 1352.5 3371 1364.37 3361.37 1374 3349.5 1374 3337.63 1374 3328 1364.37 3328 1352.5Z" fill="#000000" fill-rule="evenodd" fill-opacity="1"/><path d="M3455.13 1244.79C3463.87 1247.09 3470.59 1252.07 3475.28 1259.72 3479.96 1267.38 3482.31 1276.61 3482.31 1287.42 3482.31 1298.26 3479.97 1307.49 3475.3 1315.11 3470.63 1322.73 3463.9 1327.7 3455.13 1330L3454.05 1326.55C3460.97 1324.24 3466.11 1319.69 3469.48 1312.89 3472.85 1306.09 3474.54 1297.45 3474.54 1286.97 3474.54 1276.85 3472.86 1268.44 3469.5 1261.75 3466.15 1255.05 3460.95 1250.55 3453.92 1248.25ZM3243.36 1244.79 3244.58 1248.25C3237.57 1250.55 3232.38 1255.05 3229.01 1261.75 3225.64 1268.44 3223.96 1276.85 3223.96 1286.97 3223.96 1297.45 3225.64 1306.09 3229.01 1312.89 3232.38 1319.69 3237.52 1324.24 3244.44 1326.55L3243.36 1330C3234.59 1327.7 3227.87 1322.73 3223.19 1315.11 3218.52 1307.49 3216.19 1298.26 3216.19 1287.42 3216.19 1276.61 3218.53 1267.38 3223.22 1259.72 3227.9 1252.07 3234.62 1247.09 3243.36 1244.79Z" fill="#000000" fill-rule="evenodd" fill-opacity="1"/><text fill="#000000" fill-opacity="1" font-family="Cambria Math,Cambria Math_MSFontService,sans-serif" font-style="normal" font-variant="normal" font-weight="400" font-stretch="normal" font-size="92" text-anchor="start" direction="ltr" writing-mode="lr-tb" unicode-bidi="normal" text-decoration="none" transform="matrix(1 0 0 1 3246.14 1314)">2</text><text fill="#000000" fill-opacity="1" font-family="Cambria Math,Cambria Math_MSFontService,sans-serif" font-style="normal" font-variant="normal" font-weight="400" font-stretch="normal" font-size="92" text-anchor="start" direction="ltr" writing-mode="lr-tb" unicode-bidi="normal" text-decoration="none" transform="matrix(1 0 0 1 3297.13 1314)">,</text><text fill="#000000" fill-opacity="1" font-family="Cambria Math,Cambria Math_MSFontService,sans-serif" font-style="normal" font-variant="normal" font-weight="400" font-stretch="normal" font-size="92" text-anchor="start" direction="ltr" writing-mode="lr-tb" unicode-bidi="normal" text-decoration="none" transform="matrix(1 0 0 1 3331.32 1314)">0</text><text fill="#000000" fill-opacity="1" font-family="Cambria Math,Cambria Math_MSFontService,sans-serif" font-style="normal" font-variant="normal" font-weight="400" font-stretch="normal" font-size="92" text-anchor="start" direction="ltr" writing-mode="lr-tb" unicode-bidi="normal" text-decoration="none" transform="matrix(1 0 0 1 3382.31 1314)">.</text><text fill="#000000" fill-opacity="1" font-family="Cambria Math,Cambria Math_MSFontService,sans-serif" font-style="normal" font-variant="normal" font-weight="400" font-stretch="normal" font-size="92" text-anchor="start" direction="ltr" writing-mode="lr-tb" unicode-bidi="normal" text-decoration="none" transform="matrix(1 0 0 1 3401.22 1314)">5</text><text fill="#000000" fill-opacity="1" font-family="Noto Sans JP,Noto Sans JP_MSFontService,sans-serif" font-style="normal" font-variant="normal" font-weight="400" font-stretch="normal" font-size="110" text-anchor="start" direction="ltr" writing-mode="lr-tb" unicode-bidi="normal" text-decoration="none" transform="matrix(1 0 0 1 1046.58 1681)">カテゴリ</text><text fill="#000000" fill-opacity="1" font-family="Noto Sans JP,Noto Sans JP_MSFontService,sans-serif" font-style="normal" font-variant="normal" font-weight="400" font-stretch="normal" font-size="110" text-anchor="start" direction="ltr" writing-mode="lr-tb" unicode-bidi="normal" text-decoration="none" transform="matrix(1 0 0 1 2137.22 1681)">整数</text><text fill="#000000" fill-opacity="1" font-family="Noto Sans JP,Noto Sans JP_MSFontService,sans-serif" font-style="normal" font-variant="normal" font-weight="400" font-stretch="normal" font-size="110" text-anchor="start" direction="ltr" writing-mode="lr-tb" unicode-bidi="normal" text-decoration="none" transform="matrix(1 0 0 1 2879.82 1683)">点集合（</text><text fill="#000000" fill-opacity="1" font-family="Noto Sans JP,Noto Sans JP_MSFontService,sans-serif" font-style="normal" font-variant="normal" font-weight="400" font-stretch="normal" font-size="110" text-anchor="start" direction="ltr" writing-mode="lr-tb" unicode-bidi="normal" text-decoration="none" transform="matrix(1 0 0 1 3319.82 1683)">2</text><text fill="#000000" fill-opacity="1" font-family="Noto Sans JP,Noto Sans JP_MSFontService,sans-serif" font-style="normal" font-variant="normal" font-weight="400" font-stretch="normal" font-size="110" text-anchor="start" direction="ltr" writing-mode="lr-tb" unicode-bidi="normal" text-decoration="none" transform="matrix(1 0 0 1 3381.13 1683)">次元）</text></g></g></svg>