<svg width="2355" height="1141" xmlns="http://www.w3.org/2000/svg" xmlns:xlink="http://www.w3.org/1999/xlink" xml:space="preserve" overflow="hidden"><g transform="translate(-1022 -687)"><g><rect x="1023" y="689" width="2351" height="1090" fill="#FFFFFF" fill-opacity="1"/><path d="M6.875-3.75076e-06 6.87534 627.127-6.87466 627.127-6.875 3.75076e-06ZM20.6253 620.252 0.000360892 661.502-20.6247 620.252Z" fill="#000000" fill-rule="nonzero" fill-opacity="1" transform="matrix(6.12323e-17 1 1 -6.12323e-17 1094 1128)"/><path d="M1199 1127.5C1199 1115.63 1208.63 1106 1220.5 1106 1232.37 1106 1242 1115.63 1242 1127.5 1242 1139.37 1232.37 1149 1220.5 1149 1208.63 1149 1199 1139.37 1199 1127.5Z" fill="#000000" fill-rule="evenodd" fill-opacity="1"/><path d="M1353 1127.5C1353 1115.63 1362.63 1106 1374.5 1106 1386.37 1106 1396 1115.63 1396 1127.5 1396 1139.37 1386.37 1149 1374.5 1149 1362.63 1149 1353 1139.37 1353 1127.5Z" fill="#000000" fill-rule="evenodd" fill-opacity="1"/><path d="M1108 1127.5C1108 1115.63 1117.63 1106 1129.5 1106 1141.37 1106 1151 1115.63 1151 1127.5 1151 1139.37 1141.37 1149 1129.5 1149 1117.63 1149 1108 1139.37 1108 1127.5Z" fill="#000000" fill-rule="evenodd" fill-opacity="1"/><path d="M1467 1127.5C1467 1115.63 1476.63 1106 1488.5 1106 1500.37 1106 1510 1115.63 1510 1127.5 1510 1139.37 1500.37 1149 1488.5 1149 1476.63 1149 1467 1139.37 1467 1127.5Z" fill="#000000" fill-rule="evenodd" fill-opacity="1"/><path d="M1651 1127.5C1651 1115.63 1660.63 1106 1672.5 1106 1684.37 1106 1694 1115.63 1694 1127.5 1694 1139.37 1684.37 1149 1672.5 1149 1660.63 1149 1651 1139.37 1651 1127.5Z" fill="#000000" fill-rule="evenodd" fill-opacity="1"/><text fill="#000000" fill-opacity="1" font-family="Noto Sans JP,Noto Sans JP_MSFontService,sans-serif" font-style="normal" font-variant="normal" font-weight="400" font-stretch="normal" font-size="110" text-anchor="start" direction="ltr" writing-mode="lr-tb" unicode-bidi="normal" text-decoration="none" transform="matrix(1 0 0 1 1302.38 1735)">1</text><text fill="#000000" fill-opacity="1" font-family="Noto Sans JP,Noto Sans JP_MSFontService,sans-serif" font-style="normal" font-variant="normal" font-weight="400" font-stretch="normal" font-size="110" text-anchor="start" direction="ltr" writing-mode="lr-tb" unicode-bidi="normal" text-decoration="none" transform="matrix(1 0 0 1 1363.68 1735)">次元</text><path d="M6.875-3.75076e-06 6.87534 627.127-6.87466 627.127-6.875 3.75076e-06ZM20.6253 620.252 0.000360892 661.502-20.6247 620.252Z" fill="#000000" fill-rule="nonzero" fill-opacity="1" transform="matrix(6.12323e-17 1 1 -6.12323e-17 1881 1402)"/><path d="M6.875-3.75076e-06 6.87534 627.127-6.87466 627.127-6.875 3.75076e-06ZM20.6253 620.252 0.000360892 661.502-20.6247 620.252Z" fill="#000000" fill-rule="nonzero" fill-opacity="1" transform="matrix(1 0 0 -1 1935 1458.5)"/><path d="M2325 1145.5C2325 1133.63 2334.63 1124 2346.5 1124 2358.37 1124 2368 1133.63 2368 1145.5 2368 1157.37 2358.37 1167 2346.5 1167 2334.63 1167 2325 1157.37 2325 1145.5Z" fill="#000000" fill-rule="evenodd" fill-opacity="1"/><path d="M2133 1342.5C2133 1330.63 2142.63 1321 2154.5 1321 2166.37 1321 2176 1330.63 2176 1342.5 2176 1354.37 2166.37 1364 2154.5 1364 2142.63 1364 2133 1354.37 2133 1342.5Z" fill="#000000" fill-rule="evenodd" fill-opacity="1"/><path d="M2169 1114.5C2169 1102.63 2178.63 1093 2190.5 1093 2202.37 1093 2212 1102.63 2212 1114.5 2212 1126.37 2202.37 1136 2190.5 1136 2178.63 1136 2169 1126.37 2169 1114.5Z" fill="#000000" fill-rule="evenodd" fill-opacity="1"/><path d="M1989 1191.5C1989 1179.63 1998.63 1170 2010.5 1170 2022.37 1170 2032 1179.63 2032 1191.5 2032 1203.37 2022.37 1213 2010.5 1213 1998.63 1213 1989 1203.37 1989 1191.5Z" fill="#000000" fill-rule="evenodd" fill-opacity="1"/><path d="M2075 959.5C2075 947.626 2084.63 938 2096.5 938 2108.37 938 2118 947.626 2118 959.5 2118 971.374 2108.37 981 2096.5 981 2084.63 981 2075 971.374 2075 959.5Z" fill="#000000" fill-rule="evenodd" fill-opacity="1"/><path d="M2316 859.5C2316 847.626 2325.63 838 2337.5 838 2349.37 838 2359 847.626 2359 859.5 2359 871.374 2349.37 881 2337.5 881 2325.63 881 2316 871.374 2316 859.5Z" fill="#000000" fill-rule="evenodd" fill-opacity="1"/><path d="M2390 1299.5C2390 1287.63 2399.4 1278 2411 1278 2422.6 1278 2432 1287.63 2432 1299.5 2432 1311.37 2422.6 1321 2411 1321 2399.4 1321 2390 1311.37 2390 1299.5Z" fill="#000000" fill-rule="evenodd" fill-opacity="1"/><text fill="#000000" fill-opacity="1" font-family="Noto Sans JP,Noto Sans JP_MSFontService,sans-serif" font-style="normal" font-variant="normal" font-weight="400" font-stretch="normal" font-size="110" text-anchor="start" direction="ltr" writing-mode="lr-tb" unicode-bidi="normal" text-decoration="none" transform="matrix(1 0 0 1 2089.54 1735)">2</text><text fill="#000000" fill-opacity="1" font-family="Noto Sans JP,Noto Sans JP_MSFontService,sans-serif" font-style="normal" font-variant="normal" font-weight="400" font-stretch="normal" font-size="110" text-anchor="start" direction="ltr" writing-mode="lr-tb" unicode-bidi="normal" text-decoration="none" transform="matrix(1 0 0 1 2150.84 1735)">次元</text><path d="M1.88398-6.61183 605.122 165.275 601.354 178.499-1.88398 6.61183ZM602.277 150.167 636.296 181.307 590.973 189.838Z" fill="#000000" fill-rule="nonzero" fill-opacity="1" transform="matrix(1 0 0 -1 2670 1361.31)"/><path d="M2670.88 1325.39 3274.12 1497.28 3270.35 1510.5 2667.12 1338.61ZM3271.28 1482.17 3305.3 1513.31 3259.97 1521.84Z" fill="#000000" fill-rule="nonzero" fill-opacity="1"/><path d="M6.875-3.75076e-06 6.87534 627.127-6.87466 627.127-6.875 3.75076e-06ZM20.6253 620.252 0.000360892 661.502-20.6247 620.252Z" fill="#000000" fill-rule="nonzero" fill-opacity="1" transform="matrix(1 0 0 -1 2723 1403.5)"/><path d="M2935 901.5C2935 889.626 2944.63 880 2956.5 880 2968.37 880 2978 889.626 2978 901.5 2978 913.374 2968.37 923 2956.5 923 2944.63 923 2935 913.374 2935 901.5Z" fill="#000000" fill-rule="evenodd" fill-opacity="1"/><path d="M2896 1245.5C2896 1233.63 2905.63 1224 2917.5 1224 2929.37 1224 2939 1233.63 2939 1245.5 2939 1257.37 2929.37 1267 2917.5 1267 2905.63 1267 2896 1257.37 2896 1245.5Z" fill="#000000" fill-rule="evenodd" fill-opacity="1"/><path d="M3207 811.5C3207 799.626 3216.63 790 3228.5 790 3240.37 790 3250 799.626 3250 811.5 3250 823.374 3240.37 833 3228.5 833 3216.63 833 3207 823.374 3207 811.5Z" fill="#000000" fill-rule="evenodd" fill-opacity="1"/><path d="M2779 1059.5C2779 1047.63 2788.4 1038 2800 1038 2811.6 1038 2821 1047.63 2821 1059.5 2821 1071.37 2811.6 1081 2800 1081 2788.4 1081 2779 1071.37 2779 1059.5Z" fill="#000000" fill-rule="evenodd" fill-opacity="1"/><path d="M3134 1277.5C3134 1265.63 3143.63 1256 3155.5 1256 3167.37 1256 3177 1265.63 3177 1277.5 3177 1289.37 3167.37 1299 3155.5 1299 3143.63 1299 3134 1289.37 3134 1277.5Z" fill="#000000" fill-rule="evenodd" fill-opacity="1"/><path d="M3079 1050.5C3079 1038.63 3088.4 1029 3100 1029 3111.6 1029 3121 1038.63 3121 1050.5 3121 1062.37 3111.6 1072 3100 1072 3088.4 1072 3079 1062.37 3079 1050.5Z" fill="#000000" fill-rule="evenodd" fill-opacity="1"/><path d="M3185 1430.5C3185 1418.63 3194.63 1409 3206.5 1409 3218.37 1409 3228 1418.63 3228 1430.5 3228 1442.37 3218.37 1452 3206.5 1452 3194.63 1452 3185 1442.37 3185 1430.5Z" fill="#000000" fill-rule="evenodd" fill-opacity="1"/><text fill="#000000" fill-opacity="1" font-family="Noto Sans JP,Noto Sans JP_MSFontService,sans-serif" font-style="normal" font-variant="normal" font-weight="400" font-stretch="normal" font-size="110" text-anchor="start" direction="ltr" writing-mode="lr-tb" unicode-bidi="normal" text-decoration="none" transform="matrix(1 0 0 1 2860.08 1735)">3</text><text fill="#000000" fill-opacity="1" font-family="Noto Sans JP,Noto Sans JP_MSFontService,sans-serif" font-style="normal" font-variant="normal" font-weight="400" font-stretch="normal" font-size="110" text-anchor="start" direction="ltr" writing-mode="lr-tb" unicode-bidi="normal" text-decoration="none" transform="matrix(1 0 0 1 2921.38 1735)">次元</text></g></g></svg>